<?xml version="1.0" standalone="no"?>
<!DOCTYPE svg PUBLIC "-//W3C//DTD SVG 20010904//EN"
 "http://www.w3.org/TR/2001/REC-SVG-20010904/DTD/svg10.dtd">
<svg version="1.0" xmlns="http://www.w3.org/2000/svg"
 width="1536.000000pt" height="1024.000000pt" viewBox="0 0 1536.000000 1024.000000"
 preserveAspectRatio="xMidYMid meet">

<g transform="translate(0.000000,1024.000000) scale(0.100000,-0.100000)"
fill="#000000" stroke="none">
<path d="M2833 7780 c-106 -64 -161 -386 -105 -613 26 -106 27 -163 6 -254
-12 -50 -16 -104 -14 -203 2 -74 4 -178 4 -232 l1 -96 -87 -174 c-47 -95 -94
-193 -104 -216 -16 -41 -25 -47 -118 -94 -303 -151 -487 -306 -658 -553 -147
-212 -266 -510 -337 -848 -67 -320 -82 -530 -55 -797 29 -288 31 -274 -45
-355 -192 -206 -168 -440 57 -558 86 -45 211 -82 332 -97 97 -12 495 -15 630
-5 41 3 165 10 275 15 110 5 218 15 240 21 58 16 130 92 146 152 6 26 16 50
21 53 5 4 32 -19 60 -50 60 -67 121 -101 214 -117 76 -13 229 -7 284 11 41 14
80 53 80 81 0 16 7 19 51 19 45 0 55 4 85 34 29 29 34 41 34 83 0 30 -7 60
-19 80 -21 33 -82 73 -142 92 -20 7 -44 19 -52 29 -29 32 -62 282 -37 282 6 0
10 -5 10 -11 0 -6 17 -34 37 -62 28 -38 52 -57 102 -81 64 -30 71 -31 201 -31
120 0 141 3 185 23 59 27 91 61 107 114 6 21 16 42 22 47 15 13 441 -84 915
-207 l144 -37 28 -81 c52 -156 134 -251 255 -294 64 -23 82 -25 259 -25 269 0
352 22 421 112 18 23 34 47 35 52 2 6 60 15 129 20 86 6 142 16 179 31 47 18
68 20 155 16 56 -3 166 -1 246 5 428 29 617 39 927 50 l342 13 44 -50 c87 -96
185 -120 459 -111 268 9 350 43 447 185 18 26 29 32 57 32 76 0 231 32 290 61
70 33 102 79 89 128 -12 41 -10 97 4 211 29 221 -13 463 -115 660 -24 47 -57
131 -74 188 -34 115 -43 125 -159 197 -297 186 -679 305 -1278 401 -33 5 -42
17 -23 29 6 3 10 22 10 42 0 27 -8 42 -32 65 -57 53 -155 80 -208 58 -28 -12
-33 -9 -107 47 -264 201 -542 355 -768 427 -109 34 -349 71 -600 93 -268 22
-1101 25 -1320 5 -381 -36 -640 -156 -888 -411 -82 -83 -88 -92 -73 -106 9 -9
16 -21 16 -27 0 -5 33 25 73 67 231 246 559 405 838 405 l109 0 46 -42 c71
-66 164 -272 269 -599 l28 -86 106 -7 c365 -23 917 -145 1311 -290 269 -100
430 -150 430 -136 0 9 -291 145 -435 203 -251 102 -561 180 -875 221 l-175 23
170 8 c238 12 1059 10 1430 -4 506 -18 690 -43 990 -133 132 -40 217 -74 406
-164 86 -41 172 -77 190 -80 l34 -6 -35 31 c-19 17 -55 43 -80 58 -25 15 -74
44 -109 65 -36 21 -63 38 -60 38 28 -1 246 -88 349 -140 65 -33 250 -158 250
-169 0 -3 -18 -19 -39 -35 -22 -16 -47 -43 -57 -61 -17 -31 -17 -35 0 -79 10
-25 20 -70 23 -100 5 -47 1 -64 -28 -127 -68 -151 -158 -268 -239 -309 -101
-52 -327 -81 -665 -87 -273 -5 -472 9 -580 41 -106 32 -207 126 -370 342 -80
105 -88 120 -87 158 1 34 8 47 42 79 22 21 40 39 40 41 0 2 -15 7 -34 10 -19
4 -89 22 -156 41 -193 54 -771 134 -881 121 -93 -11 -109 -10 -132 12 -34 32
-180 97 -297 132 -122 36 -277 60 -590 90 -124 12 -229 26 -234 31 -6 5 0 9
15 9 16 0 39 14 64 40 52 54 111 76 165 62 22 -5 40 -6 40 -2 0 5 -11 48 -24
97 -92 334 -169 516 -256 597 -45 43 -53 46 -102 46 -50 0 -54 -2 -99 -50 -27
-29 -69 -93 -100 -155 -29 -57 -54 -103 -56 -102 -4 5 35 103 62 156 13 26 40
69 60 95 27 35 31 46 18 43 -10 -3 -56 -15 -103 -27 -245 -62 -448 -193 -593
-382 -56 -74 -131 -197 -124 -205 15 -14 400 -48 737 -64 124 -6 240 -13 258
-15 l33 -5 -49 -39 c-27 -21 -58 -50 -69 -64 -11 -14 -23 -22 -27 -19 -3 3 -6
1 -6 -5 0 -6 8 -13 18 -16 9 -3 -24 -4 -74 -1 -146 6 -127 -10 28 -24 79 -7
222 -23 318 -36 96 -13 240 -31 320 -40 272 -31 519 -95 579 -151 l35 -31 -32
-17 c-64 -33 -77 -108 -31 -183 23 -37 154 -112 240 -137 104 -30 434 -71 654
-82 113 -5 139 -3 202 14 l73 21 85 -107 c47 -59 85 -110 85 -115 0 -4 -15 -5
-32 -2 -18 3 -136 16 -263 30 -126 14 -270 30 -320 35 -180 21 -245 26 -237
18 12 -12 772 -118 849 -118 25 0 42 -11 86 -57 31 -32 54 -59 52 -61 -2 -2
-81 6 -177 17 -209 25 -617 61 -691 61 -65 0 -104 -23 -160 -95 -72 -95 -143
-256 -147 -340 -5 -81 -1 -97 38 -135 44 -44 112 -63 292 -80 195 -18 388 -11
620 23 58 9 229 21 380 27 274 10 553 22 980 40 213 9 480 12 780 9 255 -2 81
-19 -300 -29 -201 -5 -399 -11 -440 -14 -41 -3 -129 -8 -195 -11 -66 -3 -158
-8 -205 -10 -47 -3 -218 -10 -380 -15 -370 -13 -581 -27 -690 -47 -118 -22
-433 -22 -675 0 -270 25 -455 48 -450 57 10 16 79 21 156 9 44 -6 82 -9 85 -6
3 2 -5 22 -18 43 -51 86 -3 323 99 482 38 61 42 98 13 157 -36 75 -83 120
-152 145 -35 12 -101 40 -147 61 -46 22 -86 37 -89 34 -3 -3 0 -47 6 -98 14
-105 17 -164 13 -222 -2 -35 -5 -30 -17 37 -20 110 -88 307 -142 412 -77 151
-216 277 -302 275 -100 -1 -213 -106 -285 -263 -27 -59 -71 -197 -88 -281 -3
-11 -5 5 -6 35 -2 112 55 348 99 410 l21 30 -45 20 c-25 10 -64 25 -86 31 -39
12 -41 14 -38 48 3 30 0 36 -17 36 -14 0 -21 -8 -23 -25 -2 -14 -7 -28 -11
-32 -4 -4 -101 7 -216 26 -116 19 -279 42 -362 52 -91 11 -153 22 -152 28 0 6
8 34 18 61 11 34 21 49 31 46 43 -12 145 -20 153 -12 5 5 7 19 5 32 -4 29 -50
48 -119 48 -66 1 -86 -19 -107 -108 l-17 -74 -126 7 c-132 7 -294 -6 -338 -27
-33 -15 -85 -117 -110 -216 l-18 -73 23 -76 c53 -171 73 -401 50 -560 -29
-195 -76 -302 -135 -302 -93 0 -110 476 -31 860 27 130 69 251 170 495 149
361 169 430 177 605 6 158 -8 254 -64 419 -19 58 -41 138 -49 179 -16 85 -18
229 -4 267 5 14 47 68 92 119 69 79 84 91 95 80 8 -7 51 -32 96 -55 45 -22 97
-50 115 -61 17 -11 32 -15 32 -10 0 11 -151 109 -212 138 l-36 17 20 57 21 57
126 -2 c69 -1 150 -5 179 -10 34 -5 52 -4 52 3 0 14 -113 27 -243 27 -59 0
-107 1 -107 1 0 1 9 37 20 80 27 107 36 239 21 301 -15 59 -53 137 -90 183
l-29 36 34 82 c42 99 91 293 100 389 6 68 5 73 -19 97 -34 34 -93 35 -162 2
-87 -40 -270 -200 -332 -290 l-20 -28 -178 -2 -178 -1 -39 50 c-91 120 -114
147 -173 208 -35 35 -79 72 -98 81 -47 22 -105 20 -144 -4z m1142 -266 l-98
-195 17 -36 c18 -39 97 -143 107 -143 8 0 89 -106 89 -116 0 -3 -6 -1 -14 5
-7 6 -33 14 -58 17 -41 6 -48 3 -82 -26 -60 -53 -103 -162 -79 -204 8 -15 12
-15 35 4 16 12 41 20 65 20 57 0 88 35 88 101 0 44 2 48 20 42 29 -8 35 -22
35 -80 0 -97 -74 -361 -120 -423 -23 -33 -66 -52 -57 -26 2 6 13 10 23 8 15
-2 16 -1 4 7 -8 5 -17 8 -21 5 -15 -9 -79 27 -79 44 0 10 23 40 50 67 79 77
71 84 -87 77 -100 -4 -103 -5 -103 -28 0 -17 9 -27 34 -38 37 -15 53 -54 37
-85 -15 -27 -74 -52 -108 -45 -37 7 -54 -21 -26 -42 32 -24 80 -27 150 -10 38
9 85 16 106 14 l37 -2 -37 -38 c-57 -59 -115 -82 -198 -82 -63 0 -82 5 -173
48 -117 55 -173 62 -235 32 -55 -27 -63 -55 -32 -116 39 -77 142 -178 297
-291 185 -135 255 -201 283 -264 85 -190 68 -460 -41 -678 -68 -134 -189 -294
-303 -400 -65 -60 -129 -108 -116 -88 8 14 -15 321 -24 321 -16 -1 -72 -144
-85 -218 -72 -384 -23 -1192 88 -1455 15 -37 15 -39 -9 -65 -29 -31 -26 -39 7
-21 12 7 51 13 85 13 53 0 67 -4 88 -24 33 -31 60 -91 68 -155 l7 -49 -38 37
c-21 20 -51 59 -67 87 -27 45 -45 62 -45 43 0 -5 13 -44 30 -87 16 -44 27 -83
24 -88 -9 -13 -48 -9 -74 8 -14 10 -49 40 -77 68 -29 28 -53 48 -53 45 0 -3 9
-32 20 -64 11 -32 18 -60 15 -63 -13 -13 -95 12 -129 39 -64 54 -102 149 -236
589 -40 129 -107 343 -150 475 -43 132 -90 293 -104 357 -54 245 -90 580 -84
791 1 70 0 127 -3 127 -9 0 -64 -152 -83 -225 -8 -33 -22 -105 -30 -160 -18
-120 -40 -441 -31 -455 13 -21 -9 -9 -48 26 -22 20 -60 46 -86 57 -59 26 -192
35 -258 17 -60 -17 -150 -78 -191 -129 l-33 -41 64 35 c124 68 275 79 361 26
50 -31 131 -122 160 -179 95 -188 77 -502 -39 -697 -79 -132 -259 -273 -410
-321 -115 -37 -288 -45 -363 -16 -60 23 -74 21 -96 -13 -49 -74 3 -122 160
-150 100 -17 394 -20 569 -4 203 17 476 22 524 10 63 -18 91 -50 91 -104 0
-55 -35 -91 -103 -107 -89 -20 -500 -44 -752 -44 -267 0 -377 12 -501 55 -191
67 -271 245 -167 370 27 32 113 79 145 79 26 0 29 28 13 130 -59 380 -57 357
-52 555 5 194 17 278 71 529 55 251 125 451 221 633 81 151 137 226 260 348
86 85 135 124 216 172 172 101 251 135 272 114 14 -14 30 -15 22 -1 -3 6 -4
10 -1 10 3 0 28 -34 57 -76 28 -42 53 -73 56 -71 2 3 -1 15 -7 28 -9 15 -11
57 -7 133 6 134 30 210 110 348 55 97 100 197 112 254 3 18 -4 103 -15 190
-31 228 -16 327 60 410 l42 46 -30 31 c-42 44 -90 141 -102 206 -21 116 -5
283 35 361 9 17 26 37 40 46 23 15 27 15 57 -4 18 -12 47 -36 65 -54 52 -55
182 -250 193 -290 l11 -38 39 25 c54 34 118 47 240 47 96 1 194 -16 271 -47
12 -5 15 0 12 22 -3 21 10 50 58 123 63 95 213 259 226 246 4 -3 -38 -94 -92
-202z m2260 -1804 c243 -17 450 -40 605 -67 141 -24 210 -43 100 -28 -101 14
-619 22 -1122 18 l-498 -4 -32 23 c-18 13 -41 30 -51 40 -20 18 -14 19 133 32
83 7 713 -3 865 -14z m610 -260 c10 -11 16 -20 13 -20 -3 0 -13 9 -23 20 -10
11 -16 20 -13 20 3 0 13 -9 23 -20z m340 -98 c-3 -3 -11 0 -18 7 -9 10 -8 11
6 5 10 -3 15 -9 12 -12z m55 -28 c0 -2 -9 0 -20 6 -11 6 -20 13 -20 16 0 2 9
0 20 -6 11 -6 20 -13 20 -16z m209 -123 c147 -98 167 -113 144 -106 -13 3 -66
7 -118 7 -52 0 -93 4 -90 7 2 4 41 6 86 5 l81 -3 -21 23 c-12 13 -39 32 -59
42 -20 11 -39 21 -42 25 -3 3 -23 16 -45 29 -71 42 -135 83 -135 88 0 7 112
-58 199 -117z m-2451 32 c42 -20 73 -64 80 -115 l5 -41 -34 6 c-69 13 -355 30
-382 24 -35 -9 -35 -36 -1 -77 15 -17 24 -33 22 -36 -9 -8 -98 108 -98 128 0
22 58 81 104 105 65 34 236 37 304 6z m2825 -46 c7 4 4 9 -9 14 -17 7 -17 8
-1 8 27 1 68 -23 106 -63 l34 -35 -28 -11 c-23 -9 -30 -7 -49 12 -11 13 -38
36 -58 52 -21 16 -38 33 -38 38 0 5 7 2 16 -6 8 -9 21 -13 27 -9z m-702 -64
c13 -16 12 -17 -3 -4 -10 7 -18 15 -18 17 0 8 8 3 21 -13z m214 -13 c-3 -6
-43 -9 -88 -9 -59 1 -74 3 -52 9 46 12 147 12 140 0z m-900 -645 c327 -32 624
-78 712 -111 39 -14 42 -18 37 -42 -13 -54 -43 -111 -66 -124 -52 -29 -562 -2
-708 39 -63 17 -73 24 -112 77 -38 52 -37 68 4 64 27 -2 37 -11 56 -46 13 -23
32 -46 41 -52 35 -18 543 -64 603 -54 74 12 79 15 94 49 8 19 14 39 14 44 0
27 -334 75 -848 122 -113 10 -133 14 -130 28 4 19 56 31 108 25 19 -2 107 -11
195 -19z m2994 -47 c33 -114 27 -154 -28 -183 l-29 -15 1 83 2 82 -57 -3 c-67
-4 -73 6 -25 41 35 26 99 65 108 66 3 1 16 -32 28 -71z m-3760 -52 c15 -8 33
-22 40 -30 12 -15 10 -15 -24 0 -21 8 -61 16 -90 17 -48 2 -51 3 -32 14 30 17
72 16 106 -1z m1101 -86 c0 -29 -2 -30 -45 -30 -36 0 -43 3 -39 15 7 17 51 44
72 45 7 0 12 -12 12 -30z m-1094 -38 c26 -14 77 -70 102 -113 119 -199 150
-658 62 -914 -26 -75 -71 -152 -113 -193 -122 -118 -267 -13 -350 253 -39 124
-50 241 -44 437 6 187 22 275 73 389 30 66 106 145 151 154 15 4 33 8 38 9 13
4 56 -8 81 -22z m3834 -59 c19 -43 56 -172 64 -224 l7 -47 -78 -10 c-43 -6
-116 -14 -162 -18 -78 -6 -159 -32 -234 -75 -33 -18 -29 -3 5 21 18 12 47 41
65 64 38 49 143 249 143 271 0 15 16 20 56 16 12 -1 34 5 50 14 44 23 69 19
84 -12z m-6018 -305 c-2 -178 -7 -348 -10 -378 -6 -50 10 -254 23 -288 3 -8 0
-12 -7 -9 -7 2 -12 12 -10 22 2 9 -1 14 -7 11 -36 -23 -70 160 -78 424 -7 234
5 333 55 452 20 49 37 88 37 88 0 0 -1 -145 -3 -322z m713 58 c83 -15 138 -30
336 -90 64 -19 215 -60 335 -91 120 -30 220 -58 223 -61 3 -4 -7 -4 -24 0 -16
3 -91 15 -165 26 -167 25 -260 43 -415 81 -120 30 -365 110 -414 135 l-26 14
35 0 c19 0 71 -7 115 -14z m5030 -235 l50 -7 -37 -14 c-89 -33 -21 -44 192
-30 94 6 176 7 183 3 12 -7 -251 -41 -332 -42 -38 -1 -42 -3 -28 -13 9 -7 38
-44 64 -83 60 -87 116 -119 204 -119 33 0 59 -3 59 -8 0 -4 -25 -15 -55 -24
-47 -15 -61 -16 -112 -4 -52 11 -66 21 -153 105 -138 134 -131 132 -449 116
-141 -6 -476 -16 -746 -21 -275 -6 -510 -15 -535 -21 -71 -17 -167 -73 -265
-154 -174 -145 -204 -157 -410 -159 -156 -1 -268 9 -341 33 l-59 19 65 3 c36
1 115 3 175 4 127 1 139 5 253 96 41 32 99 71 130 86 l57 28 -200 6 c-248 8
-381 19 -363 31 7 4 156 6 330 3 180 -3 319 -1 322 4 8 12 -12 19 -74 27 -28
4 -52 10 -55 14 -2 4 44 13 103 21 78 10 256 14 657 14 678 1 891 15 1180 79
69 15 119 17 190 7z m-5110 -61 c61 -16 252 -59 425 -95 318 -67 602 -134 653
-154 26 -10 40 -45 15 -36 -7 2 -65 13 -128 25 -322 59 -977 224 -1092 274
-31 13 -31 14 -8 15 14 1 75 -12 135 -29z m-1506 -495 l44 -22 -164 -6 c-281
-11 -495 -16 -469 -11 14 3 81 17 150 31 231 47 358 49 439 8z"/>
<path d="M2883 7358 l2 -138 30 -30 c43 -43 94 -50 140 -19 41 28 44 44 13 60
-63 33 -102 75 -133 144 -17 38 -37 81 -43 95 -9 20 -11 -2 -9 -112z"/>
<path d="M3223 6985 c13 -12 42 -46 64 -76 55 -74 90 -89 222 -98 58 -4 117
-13 129 -20 13 -7 26 -10 29 -8 5 6 -41 100 -70 141 -11 16 -43 39 -71 52 -44
19 -70 23 -189 26 l-138 3 24 -20z m178 -38 c-1 -4 -1 -25 -1 -47 0 -37 -1
-39 -19 -28 -27 16 -34 60 -13 76 17 13 34 12 33 -1z m149 -78 c0 -20 -4 -24
-44 -33 -24 -6 -27 -5 -19 6 6 7 14 28 18 46 7 32 8 33 26 16 10 -9 19 -25 19
-35z"/>
<path d="M3860 6779 c0 -5 5 -7 10 -4 6 3 10 8 10 11 0 2 -4 4 -10 4 -5 0 -10
-5 -10 -11z"/>
<path d="M2940 6592 c0 -20 189 -56 325 -63 77 -3 155 -12 173 -19 55 -20 47
-4 -15 31 -57 33 -59 33 -258 45 -110 7 -206 13 -212 13 -7 1 -13 -3 -13 -7z"/>
<path d="M3295 6486 c-78 -25 -185 -86 -185 -106 0 -12 81 7 173 39 61 21 107
31 148 31 67 0 77 14 24 36 -42 17 -106 17 -160 0z"/>
<path d="M3358 6423 c7 -3 16 -2 19 1 4 3 -2 6 -13 5 -11 0 -14 -3 -6 -6z"/>
<path d="M1888 2803 c7 -3 16 -2 19 1 4 3 -2 6 -13 5 -11 0 -14 -3 -6 -6z"/>
<path d="M7845 5170 c-5 -9 8 -14 19 -7 2 1 14 -7 27 -18 19 -16 21 -16 10 -2
-20 26 -48 39 -56 27z"/>
<path d="M5519 4172 l-32 -28 41 -155 c48 -183 51 -199 46 -199 -14 0 -104
259 -104 300 0 37 -24 8 -45 -55 l-19 -56 34 -62 c18 -34 53 -91 77 -126 24
-35 43 -70 43 -79 0 -26 -64 43 -123 132 l-52 80 -6 -45 c-4 -24 -9 -69 -13
-99 l-7 -56 75 -38 c41 -21 76 -46 79 -56 5 -19 -6 -17 -107 22 l-49 18 7
-102 c3 -56 8 -103 10 -105 2 -2 18 9 36 25 29 27 106 59 116 49 3 -2 -29 -34
-70 -71 l-75 -67 19 -67 c10 -37 24 -81 30 -97 12 -30 12 -29 39 50 31 89 69
172 82 181 13 8 12 4 -20 -98 -58 -184 -63 -206 -50 -231 16 -30 69 -97 77
-97 4 0 8 48 10 108 3 115 27 281 42 296 6 6 7 -38 2 -120 -4 -71 -7 -165 -7
-209 0 -78 1 -80 25 -83 14 -2 33 3 42 10 16 12 16 23 3 143 -8 72 -14 153
-14 180 1 45 3 40 24 -55 13 -58 27 -129 31 -157 3 -29 10 -53 14 -53 11 0 60
95 60 116 0 11 -20 70 -45 133 -46 117 -52 136 -36 127 18 -12 101 -163 102
-187 2 -57 28 41 34 127 l6 89 -53 25 c-62 29 -72 57 -18 51 81 -9 75 -15 72
79 -1 47 -5 101 -8 120 l-6 35 -48 -55 c-34 -39 -52 -52 -59 -45 -8 8 4 34 40
90 59 93 60 110 11 220 l-30 68 -7 -34 c-11 -50 -75 -252 -82 -259 -10 -9 7
102 34 214 22 94 23 111 12 133 -15 27 -64 57 -79 48 -6 -4 -10 -77 -11 -173
-1 -135 -3 -159 -11 -127 -6 22 -11 100 -12 172 -1 131 -1 133 -23 133 -13 0
-37 -13 -54 -28z m169 -496 c28 -70 -14 -155 -55 -113 -19 19 -25 104 -11 140
13 31 48 17 66 -27z"/>
<path d="M5446 3857 c3 -10 9 -15 12 -12 3 3 0 11 -7 18 -10 9 -11 8 -5 -6z"/>
<path d="M5581 3194 c0 -11 3 -14 6 -6 3 7 2 16 -1 19 -3 4 -6 -2 -5 -13z"/>
<path d="M5691 3164 c0 -11 3 -14 6 -6 3 7 2 16 -1 19 -3 4 -6 -2 -5 -13z"/>
<path d="M5702 3120 c0 -14 2 -19 5 -12 2 6 2 18 0 25 -3 6 -5 1 -5 -13z"/>
<path d="M3472 3925 c0 -16 2 -22 5 -12 2 9 2 23 0 30 -3 6 -5 -1 -5 -18z"/>
<path d="M3476 3573 c-6 -14 -5 -15 5 -6 7 7 10 15 7 18 -3 3 -9 -2 -12 -12z"/>
<path d="M3471 3264 c0 -11 3 -14 6 -6 3 7 2 16 -1 19 -3 4 -6 -2 -5 -13z"/>
<path d="M7748 3573 c7 -3 16 -2 19 1 4 3 -2 6 -13 5 -11 0 -14 -3 -6 -6z"/>
<path d="M7928 3573 c6 -2 18 -2 25 0 6 3 1 5 -13 5 -14 0 -19 -2 -12 -5z"/>
<path d="M7988 3573 c7 -3 16 -2 19 1 4 3 -2 6 -13 5 -11 0 -14 -3 -6 -6z"/>
<path d="M7662 7060 c-198 -36 -376 -167 -460 -340 -117 -239 -82 -564 79
-753 120 -140 291 -214 514 -224 145 -6 268 17 385 73 115 54 110 45 110 206
0 76 -4 138 -9 138 -5 0 -28 -30 -52 -67 -90 -138 -180 -202 -316 -225 -248
-42 -462 118 -517 385 -22 105 -20 264 3 352 26 99 36 121 86 191 88 123 245
183 405 154 128 -23 160 -38 235 -114 39 -39 77 -84 85 -101 20 -43 59 -95 71
-95 6 0 8 60 7 158 l-3 157 -65 32 c-105 53 -205 74 -365 78 -77 2 -164 0
-193 -5z"/>
<path d="M8808 7035 c26 -19 52 -66 52 -95 0 -24 -31 -113 -110 -320 -28 -74
-92 -243 -141 -375 -143 -382 -154 -405 -213 -446 -20 -13 -36 -26 -36 -29 0
-9 232 -12 282 -5 l44 7 -28 30 c-19 21 -28 41 -28 64 0 37 75 265 90 274 14
9 477 6 486 -3 17 -17 85 -216 91 -263 5 -49 4 -53 -26 -75 -17 -12 -31 -26
-31 -29 0 -3 95 -7 212 -8 l212 -1 -50 47 c-33 31 -57 67 -71 102 -12 30 -77
197 -144 370 -67 173 -161 416 -209 540 l-88 225 -158 3 c-148 2 -157 1 -136
-13z m162 -256 c0 -5 41 -119 90 -253 50 -134 90 -249 90 -255 0 -8 -59 -11
-190 -11 -168 0 -190 2 -190 16 0 12 134 398 175 506 7 18 25 15 25 -3z"/>
<path d="M9750 7043 c0 -4 15 -22 33 -41 l32 -33 3 -550 c3 -598 4 -588 -53
-625 -14 -9 -25 -20 -25 -25 0 -5 70 -9 155 -9 85 0 155 3 155 7 0 4 -16 24
-36 44 -24 25 -39 52 -45 81 -10 51 -11 848 -1 848 4 0 16 -15 28 -33 12 -17
68 -93 126 -167 57 -74 209 -272 337 -440 129 -168 242 -313 253 -322 15 -13
37 -18 84 -18 l64 0 2 606 3 606 44 39 44 39 -169 -1 c-135 0 -165 -3 -149
-12 11 -7 35 -27 52 -45 l33 -33 0 -394 c0 -216 3 -402 6 -412 6 -16 5 -16
-14 2 -20 20 -426 553 -591 777 l-86 117 -142 1 c-79 0 -143 -3 -143 -7z"/>
<path d="M11030 6925 c0 -69 2 -125 4 -125 3 0 20 21 38 46 53 74 89 87 251
92 l137 4 0 -547 0 -547 -39 -39 c-21 -22 -36 -40 -32 -42 3 -2 90 -4 194 -6
194 -3 213 1 161 35 -52 35 -52 35 -55 535 -1 255 -1 497 0 537 l1 72 106 0
c152 0 184 -10 248 -81 29 -33 56 -59 59 -59 4 0 7 56 7 125 l0 125 -540 0
-540 0 0 -125z"/>
<path d="M12220 7044 c0 -3 12 -15 26 -27 54 -42 54 -45 54 -594 0 -317 -4
-522 -10 -545 -7 -23 -26 -50 -50 -71 -22 -19 -40 -37 -40 -41 0 -4 90 -6 200
-6 110 1 200 5 200 8 0 4 -16 21 -36 37 -23 20 -38 43 -44 70 -5 22 -10 269
-10 548 0 560 0 558 61 594 16 10 29 21 29 25 0 4 -85 8 -190 8 -104 0 -190
-3 -190 -6z"/>
<path d="M12770 7044 c0 -4 16 -22 35 -41 25 -25 35 -43 35 -66 1 -39 1 -948
0 -1031 0 -58 -1 -61 -46 -103 l-47 -43 207 0 c113 0 206 2 206 5 0 2 -19 22
-42 44 l-43 40 -3 198 -3 198 64 63 64 64 55 -84 c30 -45 117 -179 193 -296
75 -117 145 -217 155 -222 9 -5 91 -9 181 -9 157 0 163 1 139 17 -72 49 -128
121 -334 427 l-221 331 119 135 c217 245 287 319 327 342 21 12 39 25 39 30 0
4 -73 7 -161 7 l-161 0 16 -25 c32 -48 23 -64 -113 -217 -41 -46 -137 -154
-214 -240 -76 -87 -141 -158 -143 -158 -2 0 -4 124 -4 275 l0 276 45 44 44 45
-194 0 c-107 0 -195 -3 -195 -6z"/>
<path d="M4112 6520 c2 -6 68 -32 148 -60 80 -27 153 -54 163 -60 23 -14 33
-7 14 8 -14 12 -132 63 -212 91 -68 24 -117 33 -113 21z"/>
<path d="M9404 5429 c-109 -14 -207 -92 -240 -191 -26 -80 -16 -200 23 -269
54 -96 151 -149 273 -149 121 0 216 53 259 145 12 25 21 47 21 50 0 3 -28 5
-62 5 -60 0 -64 -2 -85 -34 -44 -68 -159 -84 -234 -33 -106 72 -106 284 0 354
68 46 183 24 227 -42 14 -22 23 -25 75 -25 63 0 68 5 50 53 -15 39 -73 99
-111 115 -47 20 -133 29 -196 21z"/>
<path d="M9919 5133 c-63 -159 -116 -292 -118 -296 -1 -4 25 -7 59 -5 l62 3
19 54 c10 30 23 59 27 63 5 5 67 7 137 6 l129 -3 24 -62 24 -63 64 0 c68 0 69
1 55 28 -10 18 -165 407 -201 505 l-21 57 -73 0 -73 0 -114 -287z m191 164 c0
-2 20 -57 45 -122 25 -65 43 -120 41 -122 -2 -2 -46 -2 -98 -1 l-94 3 45 123
c25 67 49 122 53 122 5 0 8 -2 8 -3z"/>
<path d="M10538 5126 l3 -296 57 0 57 0 -3 110 -4 110 49 0 48 -1 65 -109 65
-110 73 0 c39 0 72 2 72 4 0 2 -34 54 -75 116 -41 62 -74 114 -73 114 36 13
84 47 101 70 31 44 32 171 1 212 -43 58 -82 69 -269 72 l-170 4 3 -296z m306
172 c15 -13 29 -37 32 -55 5 -27 1 -37 -24 -63 -29 -29 -34 -30 -117 -30 l-86
0 2 85 3 85 82 0 c72 0 86 -3 108 -22z"/>
<path d="M11470 5126 l0 -296 61 0 62 0 -6 89 c-8 125 -5 133 51 129 l46 -3
63 -105 63 -105 75 -5 c69 -5 89 0 66 15 -15 8 -143 216 -138 222 3 3 20 12
39 21 70 36 98 153 57 239 -36 74 -72 87 -271 91 l-168 4 0 -296z m308 176
c15 -12 25 -33 29 -59 5 -35 2 -45 -20 -67 -24 -24 -33 -26 -114 -26 l-88 0 0
85 0 85 85 0 c66 0 90 -4 108 -18z"/>
<path d="M12100 5125 l0 -295 220 0 220 0 0 50 0 50 -160 0 -160 0 0 80 0 80
125 0 c69 0 125 3 125 8 1 4 3 24 6 45 l6 37 -131 0 -131 0 0 70 0 70 158 0
157 0 0 50 0 50 -217 0 -218 0 0 -295z"/>
<path d="M12730 5125 l0 -295 55 0 55 0 2 200 3 199 154 -199 155 -200 48 0
48 0 0 295 0 295 -55 0 -55 0 0 -191 c0 -167 -2 -190 -15 -179 -8 6 -75 93
-150 191 l-136 179 -54 0 -55 0 0 -295z"/>
<path d="M13420 5370 l0 -50 95 0 95 0 0 -245 0 -245 60 0 60 0 0 245 0 245
95 0 95 0 0 50 0 50 -250 0 -250 0 0 -50z"/>
<path d="M4085 5240 c3 -5 8 -10 11 -10 2 0 4 5 4 10 0 6 -5 10 -11 10 -5 0
-7 -4 -4 -10z"/>
<path d="M6033 4993 c9 -2 23 -2 30 0 6 3 -1 5 -18 5 -16 0 -22 -2 -12 -5z"/>
<path d="M3934 4840 c-27 -11 -39 -29 -28 -40 5 -4 42 -11 82 -15 l72 -7 0 26
c0 15 -8 30 -19 36 -23 12 -77 12 -107 0z"/>
<path d="M8658 4613 c7 -3 16 -2 19 1 4 3 -2 6 -13 5 -11 0 -14 -3 -6 -6z"/>
<path d="M8288 4605 c-2 -1 -113 -5 -248 -8 -249 -6 -555 -29 -638 -48 -57
-13 -109 -44 -117 -70 -11 -34 4 -34 33 0 23 28 37 34 107 46 289 50 1110 59
1588 19 57 -5 77 -4 77 5 0 7 -3 10 -7 8 -5 -3 -71 4 -148 14 -79 11 -232 21
-350 24 -115 3 -229 7 -252 9 -23 2 -44 2 -45 1z"/>
<path d="M8115 4473 c-313 -14 -612 -42 -647 -59 -36 -19 -76 -98 -84 -166 -8
-66 14 -127 80 -226 90 -136 206 -221 338 -248 100 -20 591 -30 756 -15 362
33 454 73 570 246 111 166 87 369 -52 442 -46 24 -648 41 -961 26z m314 -103
l6 -61 349 1 c193 0 347 -2 344 -6 -8 -7 -457 -33 -590 -34 l-98 0 0 -64 c0
-35 -3 -72 -6 -80 -6 -15 26 -16 332 -11 474 7 389 -9 -213 -41 l-121 -6 -4
-72 c-2 -39 -3 -73 -2 -76 2 -4 91 -2 462 12 204 8 -58 -28 -358 -50 -100 -7
-104 -8 -111 -32 l-6 -25 -4 25 -4 25 -295 6 c-236 5 -440 20 -440 33 0 1 164
0 365 -2 l365 -3 0 79 0 79 -407 7 c-536 8 -616 23 -143 26 195 1 360 3 365 5
6 1 48 3 95 3 l85 2 -3 77 -3 78 -237 -4 c-211 -3 -708 7 -700 14 3 3 629 24
828 28 l105 2 3 79 c3 73 4 78 19 63 9 -9 18 -41 22 -77z"/>
<path d="M8313 4283 c9 -2 23 -2 30 0 6 3 -1 5 -18 5 -16 0 -22 -2 -12 -5z"/>
<path d="M8158 4083 c7 -3 16 -2 19 1 4 3 -2 6 -13 5 -11 0 -14 -3 -6 -6z"/>
<path d="M8303 4083 c9 -2 23 -2 30 0 6 3 -1 5 -18 5 -16 0 -22 -2 -12 -5z"/>
<path d="M8203 3893 c9 -2 23 -2 30 0 6 3 -1 5 -18 5 -16 0 -22 -2 -12 -5z"/>
<path d="M3736 4208 c-33 -50 -50 -137 -50 -250 1 -60 -2 -108 -5 -108 -4 0
-7 -8 -7 -17 0 -10 -4 -33 -8 -50 -6 -27 -5 -33 9 -33 9 0 15 -3 13 -7 -45
-88 -48 -147 -9 -237 18 -40 24 -46 36 -36 11 9 15 41 17 123 l3 112 9 -95 10
-95 14 45 c23 75 20 120 -11 165 -15 22 -27 49 -27 59 0 17 5 14 29 -14 16
-19 33 -32 37 -27 4 4 10 57 12 117 5 111 -3 136 -27 84 -6 -15 -14 -24 -18
-21 -3 4 4 27 17 53 20 45 21 53 10 123 -6 42 -17 89 -24 106 l-12 30 -18 -27z
m-16 -225 c0 -19 -3 -24 -10 -17 -6 6 -8 18 -4 27 9 24 14 21 14 -10z"/>
<path d="M3682 4140 c0 -14 2 -19 5 -12 2 6 2 18 0 25 -3 6 -5 1 -5 -13z"/>
<path d="M6011 4084 c0 -11 3 -14 6 -6 3 7 2 16 -1 19 -3 4 -6 -2 -5 -13z"/>
<path d="M6898 4083 c7 -3 16 -2 19 1 4 3 -2 6 -13 5 -11 0 -14 -3 -6 -6z"/>
<path d="M6031 3934 c0 -11 3 -14 6 -6 3 7 2 16 -1 19 -3 4 -6 -2 -5 -13z"/>
<path d="M3655 3920 c-4 -6 -8 -43 -10 -83 -5 -88 13 -58 20 35 5 57 3 68 -10
48z"/>
<path d="M8818 3773 c7 -3 16 -2 19 1 4 3 -2 6 -13 5 -11 0 -14 -3 -6 -6z"/>
<path d="M3641 3728 c-1 -20 -3 -45 -6 -55 -3 -10 2 -3 11 16 11 25 13 40 5
55 -8 18 -10 16 -10 -16z"/>
<path d="M3621 3734 c0 -11 3 -14 6 -6 3 7 2 16 -1 19 -3 4 -6 -2 -5 -13z"/>
<path d="M7868 3743 c7 -3 16 -2 19 1 4 3 -2 6 -13 5 -11 0 -14 -3 -6 -6z"/>
<path d="M8008 3733 c7 -3 16 -2 19 1 4 3 -2 6 -13 5 -11 0 -14 -3 -6 -6z"/>
<path d="M8458 3733 c6 -2 18 -2 25 0 6 3 1 5 -13 5 -14 0 -19 -2 -12 -5z"/>
<path d="M8238 3723 c12 -2 30 -2 40 0 9 3 -1 5 -23 4 -22 0 -30 -2 -17 -4z"/>
<path d="M8703 3263 c15 -2 39 -2 55 0 15 2 2 4 -28 4 -30 0 -43 -2 -27 -4z"/>
<path d="M8508 3253 c12 -2 30 -2 40 0 9 3 -1 5 -23 4 -22 0 -30 -2 -17 -4z"/>
<path d="M8243 3243 c15 -2 37 -2 50 0 12 2 0 4 -28 4 -27 0 -38 -2 -22 -4z"/>
<path d="M8018 3233 c23 -2 59 -2 80 0 20 2 1 4 -43 4 -44 0 -61 -2 -37 -4z"/>
<path d="M7773 3223 c15 -2 39 -2 55 0 15 2 2 4 -28 4 -30 0 -43 -2 -27 -4z"/>
<path d="M6208 3213 c6 -2 18 -2 25 0 6 3 1 5 -13 5 -14 0 -19 -2 -12 -5z"/>
<path d="M7503 3213 c15 -2 37 -2 50 0 12 2 0 4 -28 4 -27 0 -38 -2 -22 -4z"/>
<path d="M7368 3203 c7 -3 16 -2 19 1 4 3 -2 6 -13 5 -11 0 -14 -3 -6 -6z"/>
<path d="M6418 3193 c7 -3 16 -2 19 1 4 3 -2 6 -13 5 -11 0 -14 -3 -6 -6z"/>
<path d="M7208 3183 c7 -3 16 -2 19 1 4 3 -2 6 -13 5 -11 0 -14 -3 -6 -6z"/>
<path d="M7153 3173 c9 -2 23 -2 30 0 6 3 -1 5 -18 5 -16 0 -22 -2 -12 -5z"/>
<path d="M6728 3163 c12 -2 32 -2 45 0 12 2 2 4 -23 4 -25 0 -35 -2 -22 -4z"/>
</g>
</svg>
